<svg xmlns="http://www.w3.org/2000/svg" width="113.76" height="26.964" viewBox="0 0 113.76 26.964">
  <path id="Path_3" data-name="Path 3" d="M1.152-21.06h6.7V0h5.04V-21.06h6.7v-4.068H1.152ZM41.8-9.972a9.856,9.856,0,0,0-10.26-10.3,9.856,9.856,0,0,0-10.26,10.3c0,6.264,4.356,10.3,10.116,10.3C37.188.324,41.8-3.708,41.8-9.972Zm-15.408,0c0-4,2.412-5.9,5.076-5.9s5.148,1.908,5.148,5.9c0,3.96-2.556,5.9-5.22,5.9C28.692-4.068,26.388-6.012,26.388-9.972Zm17.1-.072C43.488-3.816,47.52.324,52.6.324a7.538,7.538,0,0,0,6.552-3.276V0H64.26V-26.64H59.148v9.468a8.184,8.184,0,0,0-6.516-3.1C47.52-20.268,43.488-16.272,43.488-10.044Zm15.7.072c0,3.78-2.52,5.868-5.292,5.868-2.7,0-5.256-2.16-5.256-5.94s2.556-5.8,5.256-5.8C56.664-15.84,59.184-13.752,59.184-9.972Zm28.548,0a9.856,9.856,0,0,0-10.26-10.3,9.856,9.856,0,0,0-10.26,10.3c0,6.264,4.356,10.3,10.116,10.3C83.124.324,87.732-3.708,87.732-9.972Zm-15.408,0c0-4,2.412-5.9,5.076-5.9s5.148,1.908,5.148,5.9c0,3.96-2.556,5.9-5.22,5.9C74.628-4.068,72.324-6.012,72.324-9.972ZM106.2-5.688C106.056-13,95-10.728,95-14.364c0-1.152.972-1.908,2.844-1.908,1.98,0,3.2,1.044,3.348,2.592h4.824c-.288-3.96-3.2-6.588-8.028-6.588-4.932,0-7.884,2.664-7.884,5.976,0,7.308,11.268,5.04,11.268,8.6,0,1.152-1.08,2.052-3.06,2.052-2.016,0-3.42-1.152-3.6-2.664H89.64C89.856-2.592,93.348.324,98.352.324,103.212.324,106.2-2.268,106.2-5.688ZM114.912-2.7a2.946,2.946,0,0,0-3.06-2.952A2.966,2.966,0,0,0,108.72-2.7,2.966,2.966,0,0,0,111.852.252,2.946,2.946,0,0,0,114.912-2.7Z" transform="translate(-1.152 26.64)"/>
</svg>
